<svg width="152" height="19" viewBox="0 0 152 19" fill="none" xmlns="http://www.w3.org/2000/svg">
<path d="M4.96 5.14C6.32 5.14 7.36 6.48 7.36 8.42C7.36 9.88 6.58 11 5.3 11C3.84 11 2.9 9.46 2.9 7.68C2.9 6.3 3.66 5.14 4.96 5.14ZM7.8 13.48C6.86 13.32 5.82 13.28 5.08 13.2C4 13.08 3.6 12.9 3.6 12.48C3.6 12 4.18 11.88 4.58 11.84C4.7 11.82 4.98 11.8 5.32 11.78C7.58 11.64 8.94 10.06 8.94 7.9C8.94 7.38 8.84 6.7 8.42 6.04C8.54 6.06 8.62 6.06 8.72 6.06C9.58 6.06 10.04 5.72 10.04 5.1C10.04 4.56 9.72 4.3 9.32 4.3C8.42 4.3 8.64 5.32 8.04 5.32C7.94 5.32 7.84 5.28 7.72 5.2C6.84 4.56 5.94 4.34 5.18 4.34C2.86 4.34 1.28 6.06 1.28 8.12C1.28 9.64 2.14 10.84 3.44 11.44C2.66 11.76 2.2 12.28 2.2 13C2.2 13.68 2.7 14.22 3.72 14.46C4.64 14.68 5.9 14.72 6.76 14.82C7.98 14.94 8.68 15.26 8.68 16.06C8.68 17.22 7.2 18.04 5.28 18.04C4.2 18.04 3.24 17.84 2.62 17.38C2.2 17.06 2 16.66 2 16.26C2 15.84 2.14 15.56 2.24 15.4C2.34 15.22 2.42 15.14 2.42 14.98C2.42 14.8 2.26 14.68 2.02 14.68C1.68 14.68 1.32 14.86 1.06 15.12C0.72 15.46 0.54 15.86 0.54 16.36C0.54 16.9 0.78 17.46 1.28 17.88C2.04 18.52 3.3 18.86 5.04 18.86C8.34 18.86 9.98 17.34 9.98 15.58C9.98 14.42 9.1 13.7 7.8 13.48ZM17.9375 9.52C17.9375 10.78 17.9175 11.78 17.4575 12.74C16.9175 13.86 15.9375 14.34 15.0775 14.34C14.0975 14.34 13.3375 13.7 13.3375 12.68C13.3375 12.04 13.6575 11.38 14.4175 10.9C15.4975 10.22 16.9975 9.84 17.7975 9.18C17.8375 9.14 17.8575 9.14 17.8775 9.14C17.9175 9.14 17.9375 9.18 17.9375 9.22V9.52ZM20.2975 13.88C20.2175 13.88 20.0775 13.92 19.9975 13.92C19.4375 13.92 19.4375 12.88 19.4375 11.98C19.4375 10.8 19.4975 9.62 19.4975 8.54C19.4975 7.52 19.4575 6.32 18.6775 5.44C18.1175 4.82 17.2775 4.34 15.8575 4.34C15.3175 4.34 14.7175 4.4 14.2175 4.54C13.5775 4.7 12.9975 4.96 12.7175 5.3C12.4975 5.6 12.3975 6.26 12.3975 6.76C12.3975 7.12 12.3975 7.64 12.8375 7.64C13.0375 7.64 13.1575 7.5 13.2575 7.34C13.4975 7.02 13.7975 6.3 14.5175 5.72C14.9575 5.36 15.4575 5.16 16.1175 5.16C17.3175 5.16 17.9375 6 17.9375 6.98C17.9375 7.8 17.4575 8.56 16.2575 9.12C15.0975 9.66 13.8775 9.82 12.7975 10.58C12.0175 11.12 11.6175 11.88 11.6175 12.66C11.6175 14.28 13.1375 15.22 14.7175 15.22C15.9575 15.22 17.2175 14.68 17.8775 13.6C17.9175 13.54 17.9375 13.52 17.9575 13.52C17.9975 13.52 17.9975 13.56 17.9975 13.6C18.1175 14.82 18.7175 15.22 19.3175 15.22C19.9975 15.22 20.5775 14.64 20.5775 14.18C20.5775 14.1 20.5575 13.88 20.2975 13.88ZM30.6477 10.12C30.6477 12.48 29.5277 14.42 27.6077 14.42C25.8677 14.42 24.5277 12.86 24.5277 9.84C24.5277 7 25.8077 5.48 27.4677 5.48C29.4677 5.48 30.6477 7.52 30.6477 10.12ZM32.2077 9.34C32.2077 6.86 30.9077 4.34 28.1477 4.34C26.8077 4.34 25.6277 5.06 24.7677 6.06C24.7077 6.12 24.6677 6.14 24.6277 6.14C24.5677 6.14 24.5277 6.08 24.5277 6V0.5C24.5277 0.22 24.4277 0.0399995 24.1877 0.0399995C24.0877 0.0399995 24.0277 0.0599992 23.7877 0.159999C23.2877 0.38 22.9077 0.48 22.2677 0.639999C21.8077 0.76 21.7477 0.879999 21.7477 1.06C21.7477 1.22 21.9077 1.32 22.1877 1.4C22.4677 1.48 22.6677 1.54 22.8277 1.72C23.0277 1.94 23.0277 2.28 23.0277 2.84V14.54C23.0277 14.98 23.1477 15.2 23.4277 15.22C23.6877 15.22 23.8277 15.04 23.9477 14.66C24.0477 14.34 24.2277 14.22 24.4077 14.22C24.6477 14.22 24.8677 14.42 25.2677 14.66C25.8077 14.98 26.6277 15.22 27.4277 15.22C29.9277 15.22 32.2077 13.06 32.2077 9.34ZM39.6645 4.34C38.4245 4.34 37.3045 5.7 36.9245 6.44C36.9045 6.48 36.8845 6.52 36.8645 6.52C36.8445 6.52 36.8245 6.5 36.8245 6.46C36.8245 6.38 36.8245 4.84 36.8245 4.84C36.8245 4.54 36.7245 4.36 36.4245 4.36C36.3045 4.36 36.1845 4.38 35.9645 4.48C35.4445 4.7 35.2045 4.78 34.6445 4.9C34.2245 5 34.1445 5.12 34.1445 5.34C34.1445 5.56 34.4045 5.66 34.5845 5.72C34.8645 5.82 35.0245 5.86 35.2045 6.06C35.4245 6.3 35.4845 6.8 35.4845 7.76C35.4845 7.94 35.5045 10.28 35.5045 11.72C35.5045 13.1 35.3845 13.46 35.2245 13.76C35.0645 14.06 34.8045 14.2 34.6045 14.3C34.3845 14.42 34.3045 14.54 34.3045 14.68C34.3045 14.92 34.5245 15 34.7645 15H37.7245C37.9845 15 38.1845 14.92 38.1845 14.68C38.1845 14.54 38.1245 14.42 37.8845 14.3C37.7445 14.22 37.4445 14.08 37.3045 13.84C37.1445 13.56 37.0045 13.1 37.0045 11.72C37.0045 8.76 37.1045 7.7 37.6645 6.78C38.0845 6.1 38.5845 5.88 39.0045 5.88C39.6045 5.88 39.7445 6.3 40.2445 6.3C40.6645 6.3 40.8045 5.9 40.8045 5.5C40.8045 4.98 40.5445 4.34 39.6645 4.34ZM45.1775 1.28C45.1775 0.879999 44.3375 0.0399995 43.9175 0.0399995C43.5175 0.0399995 42.6775 0.899999 42.6775 1.28C42.6775 1.68 43.5175 2.54 43.9175 2.54C44.3375 2.54 45.1775 1.7 45.1775 1.28ZM45.6175 14.32C45.4375 14.22 45.1975 14.08 45.0375 13.84C44.8575 13.56 44.7375 13.1 44.7375 11.7V4.82C44.7375 4.54 44.6375 4.34 44.3775 4.34C44.2775 4.34 44.1775 4.38 44.0375 4.44C43.4575 4.68 43.1375 4.78 42.4575 4.94C41.9775 5.06 41.9175 5.18 41.9175 5.36C41.9175 5.54 42.0575 5.64 42.3775 5.72C42.6175 5.78 42.8575 5.88 42.9975 6.04C43.1775 6.26 43.1975 6.58 43.1975 7.14V11.7C43.1975 13.1 43.0975 13.54 42.8975 13.84C42.7575 14.08 42.4975 14.22 42.3175 14.32C42.0975 14.44 42.0175 14.54 42.0175 14.66C42.0175 14.92 42.2175 15 42.4775 15H45.4575C45.7175 15 45.9175 14.92 45.9175 14.66C45.9175 14.54 45.8575 14.46 45.6175 14.32ZM49.4973 8.42C49.4973 7.56 50.4173 5.14 52.6373 5.14C54.2373 5.14 55.0973 6.32 55.0973 7.32C55.0973 8.36 54.4773 8.6 53.2573 8.6C49.6973 8.6 49.6773 8.6 49.6773 8.6C49.5573 8.6 49.4973 8.56 49.4973 8.42ZM56.1773 12.44C55.7973 12.44 55.5573 13.1 54.6773 13.62C54.2373 13.88 53.5773 14.12 52.8373 14.12C51.6173 14.12 50.7373 13.46 50.1373 12.58C49.5373 11.72 49.3573 10.62 49.3573 9.6C49.3573 9.44 49.4373 9.4 49.5773 9.4C49.5773 9.4 49.6573 9.4 55.2373 9.4C56.3973 9.4 56.7773 8.98 56.7773 7.96C56.7773 7 56.2973 6.08 55.6573 5.44C54.9573 4.76 53.9373 4.34 52.7973 4.34C49.7373 4.34 47.7373 7.12 47.7373 10.06C47.7373 13.16 49.7973 15.22 52.4773 15.22C53.4373 15.22 54.3973 14.94 55.1573 14.44C55.9573 13.9 56.5573 13.26 56.5573 12.84C56.5573 12.62 56.3973 12.44 56.1773 12.44ZM62.0991 14.32C61.9191 14.22 61.6791 14.08 61.5191 13.84C61.3391 13.56 61.2191 13.1 61.2191 11.7V0.539999C61.2191 0.259999 61.1191 0.0599992 60.8591 0.0599992C60.7591 0.0599992 60.6591 0.0999987 60.5191 0.159999C59.9391 0.4 59.6191 0.5 58.9391 0.66C58.4591 0.779999 58.3991 0.899999 58.3991 1.08C58.3991 1.26 58.5391 1.36 58.8591 1.44C59.0991 1.5 59.3391 1.6 59.4791 1.76C59.6591 1.98 59.6791 2.3 59.6791 2.86V11.7C59.6791 13.1 59.5791 13.54 59.3791 13.84C59.2391 14.08 58.9791 14.22 58.7991 14.32C58.5791 14.44 58.4991 14.54 58.4991 14.66C58.4991 14.92 58.6991 15 58.9591 15H61.9391C62.1991 15 62.3991 14.92 62.3991 14.66C62.3991 14.54 62.3391 14.46 62.0991 14.32ZM70.2813 9.52C70.2813 10.78 70.2613 11.78 69.8013 12.74C69.2613 13.86 68.2812 14.34 67.4213 14.34C66.4413 14.34 65.6813 13.7 65.6813 12.68C65.6813 12.04 66.0013 11.38 66.7613 10.9C67.8413 10.22 69.3413 9.84 70.1413 9.18C70.1813 9.14 70.2013 9.14 70.2213 9.14C70.2613 9.14 70.2813 9.18 70.2813 9.22V9.52ZM72.6413 13.88C72.5613 13.88 72.4213 13.92 72.3413 13.92C71.7813 13.92 71.7813 12.88 71.7813 11.98C71.7813 10.8 71.8413 9.62 71.8413 8.54C71.8413 7.52 71.8013 6.32 71.0213 5.44C70.4613 4.82 69.6213 4.34 68.2013 4.34C67.6613 4.34 67.0613 4.4 66.5613 4.54C65.9212 4.7 65.3413 4.96 65.0613 5.3C64.8413 5.6 64.7413 6.26 64.7413 6.76C64.7413 7.12 64.7413 7.64 65.1813 7.64C65.3813 7.64 65.5013 7.5 65.6013 7.34C65.8413 7.02 66.1413 6.3 66.8613 5.72C67.3013 5.36 67.8013 5.16 68.4613 5.16C69.6613 5.16 70.2813 6 70.2813 6.98C70.2813 7.8 69.8013 8.56 68.6013 9.12C67.4413 9.66 66.2212 9.82 65.1413 10.58C64.3613 11.12 63.9613 11.88 63.9613 12.66C63.9613 14.28 65.4813 15.22 67.0613 15.22C68.3013 15.22 69.5613 14.68 70.2213 13.6C70.2613 13.54 70.2813 13.52 70.3013 13.52C70.3413 13.52 70.3413 13.56 70.3413 13.6C70.4613 14.82 71.0613 15.22 71.6613 15.22C72.3413 15.22 72.9213 14.64 72.9213 14.18C72.9213 14.1 72.9013 13.88 72.6413 13.88ZM79.4455 11.56C79.0855 11.56 79.0055 11.92 79.0055 12.32C79.0055 13.08 79.1855 13.82 79.5255 14.22C80.0055 14.74 81.2855 15.22 82.6655 15.22C83.4855 15.22 84.3455 15.04 85.1055 14.6C86.1455 13.98 86.6655 12.94 86.6655 11.96C86.6655 10.06 85.1055 9.42 83.5255 8.92C82.3255 8.54 80.8655 8.3 80.8655 6.88C80.8655 5.92 81.6455 5.22 82.6655 5.22C84.2655 5.22 84.7855 6.6 85.1455 7.2C85.2855 7.44 85.4055 7.54 85.6055 7.54C86.0055 7.54 86.1455 7.14 86.1455 6.46C86.1455 5.86 86.0055 5.26 85.5855 4.92C85.1855 4.6 84.2855 4.34 83.3655 4.34C81.3255 4.34 79.4455 5.44 79.4455 7.4C79.4455 9.1 80.9255 9.8 82.3455 10.22C83.8055 10.64 85.2855 11.08 85.2855 12.5C85.2855 13.68 84.2455 14.38 83.1055 14.38C82.2055 14.38 81.2455 13.96 80.5055 12.8C79.9255 11.88 79.8255 11.56 79.4455 11.56ZM96.8558 13.32C96.9558 13.16 97.0358 13 97.0358 12.86C97.0358 12.68 96.9158 12.5 96.6958 12.5C96.4758 12.5 96.3358 12.66 96.1558 12.86C95.6158 13.46 94.7558 14.04 93.6158 14.04C92.5958 14.04 91.5358 13.58 90.8958 12.52C90.4958 11.86 90.2358 10.86 90.2358 9.84C90.2358 8.52 90.4758 7.28 91.2958 6.3C91.7558 5.74 92.4758 5.28 93.3358 5.28C94.2358 5.28 94.8958 5.72 95.3558 6.38C95.7758 6.98 95.7958 7.56 96.2758 7.56C96.6358 7.56 96.7558 7.24 96.7558 6.42C96.7558 5.94 96.6958 5.36 96.3958 5.06C95.8958 4.54 94.7358 4.34 94.0158 4.34C92.8758 4.34 91.8958 4.62 90.9558 5.34C89.3558 6.54 88.6558 8.56 88.6558 10.36C88.6558 11.58 88.9158 12.6 89.5558 13.48C90.3958 14.64 91.6758 15.24 93.0958 15.24C94.7358 15.24 96.1758 14.42 96.8558 13.32ZM108.953 14.3C108.773 14.22 108.513 14.08 108.373 13.84C108.193 13.54 108.073 13.08 108.073 11.7V8.26C108.073 7.28 107.953 6.12 107.233 5.34C106.673 4.72 105.853 4.34 104.813 4.34C103.213 4.34 102.153 5.24 101.573 6.1C101.533 6.16 101.513 6.2 101.473 6.2C101.433 6.2 101.433 6.14 101.433 6.1V0.519999C101.433 0.259999 101.313 0.0599992 101.033 0.0599992C100.933 0.0599992 100.833 0.079999 100.693 0.139999C100.233 0.339999 99.7734 0.5 99.1534 0.639999C98.7334 0.739999 98.6534 0.86 98.6534 1.06C98.6534 1.3 98.8534 1.36 99.0734 1.42C99.3734 1.5 99.5734 1.56 99.7134 1.74C99.9534 2.04 99.9534 2.52 99.9534 3.5V11.7C99.9534 13.08 99.8134 13.54 99.6334 13.84C99.4934 14.08 99.2134 14.22 99.0334 14.3C98.8134 14.4 98.7334 14.52 98.7334 14.66C98.7334 14.92 98.9734 15 99.2134 15H102.153C102.433 15 102.633 14.92 102.633 14.66C102.633 14.52 102.553 14.4 102.333 14.3C102.173 14.22 101.893 14.08 101.753 13.84C101.573 13.54 101.433 13.08 101.433 11.7C101.433 8.24 101.593 7.14 102.393 6.34C102.893 5.84 103.573 5.62 104.213 5.62C105.733 5.62 106.533 6.58 106.533 8.3V11.7C106.533 13.08 106.393 13.54 106.213 13.84C106.073 14.08 105.813 14.22 105.633 14.3C105.413 14.4 105.333 14.52 105.333 14.66C105.333 14.92 105.553 15 105.813 15H108.773C109.033 15 109.273 14.92 109.273 14.66C109.273 14.52 109.173 14.4 108.953 14.3ZM127.52 14.32C127.34 14.22 127.08 14.08 126.94 13.84C126.76 13.54 126.64 13.1 126.64 11.7V8.3C126.64 7.2 126.58 6.52 126.14 5.8C125.64 5 124.72 4.34 123.42 4.34C121.8 4.34 120.78 5.28 120.2 6.14C120.16 6.2 120.14 6.22 120.1 6.22C120.08 6.22 120.06 6.2 120.04 6.14C119.66 5.22 118.74 4.34 117.16 4.34C115.56 4.34 114.5 5.26 113.92 6.12C113.88 6.18 113.86 6.2 113.84 6.2C113.82 6.2 113.8 6.18 113.8 6.14V4.82C113.8 4.56 113.68 4.34 113.4 4.34C113.3 4.34 113.2 4.36 113.06 4.42C112.6 4.62 112.16 4.78 111.52 4.92C111.08 5.02 111.02 5.18 111.02 5.36C111.02 5.6 111.24 5.66 111.44 5.72C111.72 5.8 111.94 5.88 112.08 6.04C112.3 6.3 112.3 6.74 112.3 7.58V11.7C112.3 13.1 112.18 13.56 112 13.84C111.84 14.08 111.58 14.24 111.4 14.32C111.18 14.42 111.1 14.54 111.1 14.68C111.1 14.92 111.32 15 111.58 15H114.52C114.76 15 114.98 14.92 114.98 14.68C114.98 14.54 114.9 14.44 114.68 14.32C114.54 14.24 114.26 14.08 114.1 13.84C113.9 13.54 113.8 13.1 113.8 11.7C113.8 8.26 114.04 7.14 114.8 6.36C115.32 5.84 115.98 5.62 116.62 5.62C117.2 5.62 117.66 5.8 117.98 6.06C118.52 6.5 118.72 7.32 118.72 8.34V11.7C118.72 13.1 118.6 13.54 118.42 13.84C118.28 14.08 118.04 14.22 117.84 14.32C117.6 14.44 117.52 14.54 117.52 14.68C117.52 14.92 117.74 15 118 15H120.94C121.2 15 121.42 14.92 121.42 14.68C121.42 14.54 121.34 14.44 121.12 14.32C120.94 14.22 120.68 14.08 120.54 13.84C120.36 13.54 120.22 13.1 120.22 11.7C120.22 8.26 120.34 7.14 121.06 6.36C121.54 5.84 122.2 5.6 122.84 5.6C123.48 5.6 124.02 5.82 124.38 6.16C124.88 6.62 125.14 7.24 125.14 8.34V11.7C125.14 13.1 125.02 13.54 124.84 13.84C124.7 14.08 124.38 14.26 124.24 14.32C124.02 14.42 123.94 14.54 123.94 14.68C123.94 14.92 124.16 15 124.42 15H127.36C127.62 15 127.84 14.92 127.84 14.68C127.84 14.52 127.72 14.42 127.52 14.32ZM132.814 1.28C132.814 0.879999 131.974 0.0399995 131.554 0.0399995C131.154 0.0399995 130.314 0.899999 130.314 1.28C130.314 1.68 131.154 2.54 131.554 2.54C131.974 2.54 132.814 1.7 132.814 1.28ZM133.254 14.32C133.074 14.22 132.834 14.08 132.674 13.84C132.494 13.56 132.374 13.1 132.374 11.7V4.82C132.374 4.54 132.274 4.34 132.014 4.34C131.914 4.34 131.814 4.38 131.674 4.44C131.094 4.68 130.774 4.78 130.094 4.94C129.614 5.06 129.554 5.18 129.554 5.36C129.554 5.54 129.694 5.64 130.014 5.72C130.254 5.78 130.494 5.88 130.634 6.04C130.814 6.26 130.834 6.58 130.834 7.14V11.7C130.834 13.1 130.734 13.54 130.534 13.84C130.394 14.08 130.134 14.22 129.954 14.32C129.734 14.44 129.654 14.54 129.654 14.66C129.654 14.92 129.854 15 130.114 15H133.094C133.354 15 133.554 14.92 133.554 14.66C133.554 14.54 133.494 14.46 133.254 14.32ZM141.714 13C141.354 13 140.874 13.88 139.774 13.88C139.234 13.88 138.694 13.64 138.434 12.94C138.194 12.3 138.154 11.18 138.154 9.64C138.154 8.28 138.174 6.48 138.194 6.14C138.194 5.98 138.274 5.88 138.434 5.88C138.814 5.88 139.094 5.88 139.534 5.9C140.074 5.92 140.554 5.98 140.914 5.98C141.454 5.98 141.654 5.88 141.754 5.4C141.774 5.28 141.814 5.22 141.814 5.1C141.814 4.8 141.534 4.78 141.254 4.78C140.834 4.78 140.214 4.86 139.694 4.88C139.194 4.9 138.914 4.9 138.634 4.9C138.294 4.9 138.194 4.8 138.194 4.5C138.194 4.2 138.194 2.36 138.194 2.36C138.194 2.24 138.134 2.16 137.994 2.16H137.334C137.194 2.16 137.134 2.24 137.114 2.36C136.914 3.32 136.854 3.82 136.534 4.2C136.294 4.48 135.914 4.7 135.234 4.92C135.114 4.96 135.074 5.02 135.074 5.12V5.68C135.074 5.82 135.134 5.88 135.294 5.88C135.294 5.88 136.054 5.88 136.534 5.88C136.674 5.88 136.734 5.96 136.734 6.1C136.734 8.24 136.614 10.14 136.614 11.82C136.614 12.7 136.694 13.5 137.054 14.12C137.374 14.66 138.054 15.22 139.134 15.22C140.514 15.22 141.454 14.4 141.874 13.72C141.954 13.58 142.034 13.42 142.034 13.28C142.034 13.2 141.974 13 141.714 13ZM151.315 11.54C151.075 11.54 150.935 11.64 150.575 12.26C149.695 13.8 149.375 14.12 147.775 14.16C146.875 14.18 146.115 14.18 145.435 14.18C145.355 14.18 145.335 14.14 145.335 14.1C145.335 14.06 145.355 14.04 145.395 13.98L151.335 5.5C151.495 5.26 151.535 4.98 151.535 4.8C151.535 4.6 151.415 4.56 151.115 4.56C150.035 4.56 147.875 4.56 147.875 4.56C145.855 4.56 144.975 4.42 144.435 4.42C144.095 4.42 143.815 4.48 143.775 4.94C143.735 5.36 143.735 5.72 143.735 5.96C143.735 6.18 143.715 6.48 143.715 6.92C143.715 7.34 143.935 7.5 144.175 7.5C144.415 7.5 144.555 7.34 144.715 6.96C145.035 6.16 145.275 5.64 145.975 5.46C146.355 5.36 146.835 5.34 147.615 5.34H149.515C149.595 5.34 149.655 5.36 149.655 5.42C149.655 5.44 149.635 5.48 149.575 5.56L143.675 13.92C143.535 14.1 143.535 14.38 143.535 14.62C143.535 14.94 143.635 15 143.975 15C145.195 15 147.095 15 147.095 15C149.015 15 149.755 15.14 150.235 15.14C151.415 15.14 151.235 13.92 151.635 12.62C151.695 12.4 151.775 12.22 151.775 11.98C151.775 11.72 151.615 11.54 151.315 11.54Z" fill="#333333"/>
</svg>
