<svg id="Layer_1" data-name="Layer 1" xmlns="http://www.w3.org/2000/svg" viewBox="0 0 118.52 212.28"><defs><style>.cls-1{fill:none;}.cls-1,.cls-2{stroke:#000;stroke-linecap:round;stroke-linejoin:round;stroke-width:0.8px;}.cls-3{fill:#ea6551;}</style></defs><path class="cls-1" d="M91,171.25c1.81,2.35,4.88,3.44,6.07,11.29-3.41,15.19-7.53,36.62-3.71,38.88,2.93,1.72,7.83-26.76,10.59-40.4-1.45,11.1,0,21.7,1.15,32.88.44,4.38,3,11.88,4.83,11.07,4.72-2.06,0-29.74,2.09-52.09.28-21.82-13.47-30.48-27.09-31.85-36.29-3.66-50.34,23.57-50.34,23.57-6.85.74-13.26,7-14.65,14-3.68,1.48-10.23,5.43-9.52,6.95.84,1.25,6.52.2,9.76-.17a8.77,8.77,0,0,0,6.07,7.87c-.44,3.68,0,9.76,2.23,10.7,1.59.2,1.45-6.52,3.55-9.08,3.2,1,6.65-1.45,8-4.53s1-6.58,1.25-10c2.19,13.47,3.61,40.37,6.58,40.37,1.69,0,1.76-27-.3-41.55a317.67,317.67,0,0,0,6.41,34.22c.51,2.13,2.23,4.49,4.19,3.75,2.16-.57-8.75-39.28,5.68-49.86C72.22,161.08,82.92,160.83,91,171.25Z" transform="translate(-9.96 -13.15)"/><path class="cls-1" d="M110.19,157.32c5-.37,10.73,2.9,12.18,7.76a14.63,14.63,0,0,1,.07,6.32c-.64,4.22-1.62,8.54-.91,12.76s1.38,5.23,3.85,8.74c.84,1.21,3.44,3.1,2.5,4.22s-2.67.84-3.72-.58a47.09,47.09,0,0,1-2.93-4.59c-3.18-6-5.51-12.28-4.12-21.06.44-2.8.71-5.64-1.42-7.49-1.21-1.08-3.71-1.15-4.35-1.39" transform="translate(-9.96 -13.15)"/><path class="cls-1" d="M74.38,92.06c1,5.67,5.53,8.74,5.5,12.93s-3.58,6.17-6.31,9.38-5.27,7.46-3.82,11.41a13.15,13.15,0,0,0,2.2,3.51c1.92,2.5,3.88,5,5.8,7.46.61.78,1.28,1.59,1.22,4.86-6.48,5.33-7.5,16.1-2.1,22.55a20.31,20.31,0,0,1,2.54-23.76c-2.27,3.61-4.53,7.32-5.57,11.44s-.75,8.84,1.85,12.22" transform="translate(-9.96 -13.15)"/><path class="cls-1" d="M29.62,174.69c3.85,4.73,5.13,6.68,7.7,10" transform="translate(-9.96 -13.15)"/><path class="cls-2" d="M26.45,182.29a.77.77,0,0,0,.6.4c.24-.13.14-.51-.13-.57a.44.44,0,0,0-.54.4.93.93,0,0,0,.2.71c.2.27.64.41.78.14a.33.33,0,0,0,0-.24.88.88,0,0,0-1.05-.64C26.14,182.89,26.34,183.47,26.45,182.29Z" transform="translate(-9.96 -13.15)"/><path class="cls-2" d="M31.58,189.14a.9.9,0,0,0,.67.57A.66.66,0,0,0,32,188.6a.65.65,0,0,0-.71.88.66.66,0,0,0,1.14,0,.6.6,0,0,0-.57-.88C31.44,188.77,31.41,189.54,31.58,189.14Z" transform="translate(-9.96 -13.15)"/><path class="cls-3" d="M74.08,92.06S38.56,87.45,38.13,49.23,72.88,13.17,77.66,13.17s34.75-.7,36.48,34.84S74.08,92.06,74.08,92.06Z" transform="translate(-9.96 -13.15)"/><path class="cls-2" d="M67.07,41.5c-.49-.87.34-2.21,1.25-2S69.43,41.34,67.07,41.5Z" transform="translate(-9.96 -13.15)"/><path class="cls-2" d="M84.61,42.12c0,.35.18-.56.18-.56.37-.36-.09-.92-.73-1-1.28-.24-1.42,1.23-.73,2C83.79,42.27,84.2,42.74,84.61,42.12Z" transform="translate(-9.96 -13.15)"/><path class="cls-1" d="M79,46.73c1.41,2.63.47,4.08-1.39,5a4.44,4.44,0,0,1-2.67.4,5.47,5.47,0,0,1-2.56-1.32,3.6,3.6,0,0,1,0-4.28" transform="translate(-9.96 -13.15)"/><polygon class="cls-3" points="61.46 76.89 60.32 82.35 69.5 82.35 67.78 76.54 61.46 76.89"/></svg>